<svg width="163" height="119" viewBox="0 0 163 119" fill="none" xmlns="http://www.w3.org/2000/svg">
<circle cx="83.9406" cy="59.4841" r="52.5" transform="rotate(-8.2423 83.9406 59.4841)" fill="#D7B377"/>
<path d="M156.288 67.7371L129.325 48.8181L108 101L153.426 92.4766C155.684 92.053 157.363 90.1452 157.496 87.8517L158.408 72.1194C158.508 70.3901 157.706 68.7321 156.288 67.7371Z" fill="#D7B377" stroke="#D7B377"/>
<circle cx="103.084" cy="46.5906" r="6.5" fill="black"/>
<path d="M150.584 71.5906V63.5906L156.04 67.0006C157.622 67.9897 158.584 69.7243 158.584 71.5906H150.584Z" fill="black" stroke="black"/>
<path d="M60.6504 8.95118L64.8023 9.9355C77.0996 12.851 83.6436 26.2997 78.3487 37.7752L58.0667 81.7322C56.134 85.9209 50.4868 86.6481 47.5559 83.0856C45.4295 80.5009 41.6452 80.048 38.9688 82.0578L36.2639 84.0891C32.4324 86.9664 27.0816 86.6482 23.6181 83.3372L21.424 81.2397C19.894 79.7771 17.9292 78.8524 15.827 78.6057C8.61832 77.7596 4.83235 69.6114 8.83442 63.5563L39.3518 17.3839C43.979 10.3829 52.4848 7.01526 60.6504 8.95118Z" fill="#8F754F" stroke="#8F754F"/>
</svg>
